<svg width="48" height="48" viewBox="0 0 48 48" fill="none" xmlns="http://www.w3.org/2000/svg">
<rect width="48" height="48" rx="24" fill="url(#paint0_linear_3_72)"/>
<path d="M24.0176 27.8789C26.1501 27.8789 27.8789 26.1501 27.8789 24.0176C27.8789 21.885 26.1501 20.1562 24.0176 20.1562C21.885 20.1562 20.1562 21.885 20.1562 24.0176C20.1562 26.1501 21.885 27.8789 24.0176 27.8789Z" fill="white"/>
<path opacity="0.5" d="M24.0098 33.0195C28.9857 33.0195 33.0195 28.9857 33.0195 24.0098C33.0195 19.0338 28.9857 15 24.0098 15C19.0338 15 15 19.0338 15 24.0098C15 28.9857 19.0338 33.0195 24.0098 33.0195Z" stroke="white" stroke-width="1.2"/>
<path opacity="0.25" d="M24.002 38.1602C31.8213 38.1602 38.1602 31.8213 38.1602 24.002C38.1602 16.1826 31.8213 9.84375 24.002 9.84375C16.1826 9.84375 9.84375 16.1826 9.84375 24.002C9.84375 31.8213 16.1826 38.1602 24.002 38.1602Z" stroke="white" stroke-width="0.8"/>
<defs>
<linearGradient id="paint0_linear_3_72" x1="5.64844" y1="5.69531" x2="42.3516" y2="42.4219" gradientUnits="userSpaceOnUse">
<stop stop-color="#004FE1"/>
<stop offset="1" stop-color="#0CBABA"/>
</linearGradient>
</defs>
</svg>
